<mxfile host="drawio-plugin" modified="2022-03-31T10:58:43.163Z" agent="5.0 (Macintosh; Intel Mac OS X 12_2_1) AppleWebKit/537.36 (KHTML, like Gecko) Chrome/89.0.4389.114 Safari/537.36" etag="5XykukwNRN3pq5O8jdjY" version="15.5.4" type="embed"><diagram id="jTxU9_EBkCACjKnzjFgJ" name="Page-1"><mxGraphModel dx="2474" dy="950" grid="0" gridSize="10" guides="1" tooltips="1" connect="1" arrows="1" fold="1" page="1" pageScale="1" pageWidth="2339" pageHeight="3300" math="0" shadow="0"><root><mxCell id="0"/><mxCell id="1" parent="0"/><mxCell id="SDDDcs5k6eTZLaJzviCm-29" value="" style="strokeColor=#dddddd;shadow=1;strokeWidth=1;rounded=1;absoluteArcSize=1;arcSize=2;" parent="1" vertex="1"><mxGeometry x="902" y="440" width="110" height="60" as="geometry"/></mxCell><mxCell id="SDDDcs5k6eTZLaJzviCm-30" value="Compute&#10;Engine" style="sketch=0;dashed=0;connectable=0;html=1;fillColor=#5184F3;strokeColor=none;shape=mxgraph.gcp2.hexIcon;prIcon=compute_engine;part=1;labelPosition=right;verticalLabelPosition=middle;align=left;verticalAlign=middle;spacingLeft=5;fontColor=#999999;fontSize=12;" parent="SDDDcs5k6eTZLaJzviCm-29" vertex="1"><mxGeometry y="0.5" width="44" height="39" relative="1" as="geometry"><mxPoint x="5" y="-19.5" as="offset"/></mxGeometry></mxCell><mxCell id="14" value="" style="edgeStyle=orthogonalEdgeStyle;rounded=0;orthogonalLoop=1;jettySize=auto;html=1;" parent="1" source="SDDDcs5k6eTZLaJzviCm-2" target="8" edge="1"><mxGeometry relative="1" as="geometry"/></mxCell><mxCell id="SDDDcs5k6eTZLaJzviCm-2" value="Cloud Scheduler" style="html=1;fillColor=#5184F3;strokeColor=none;verticalAlign=top;labelPosition=center;verticalLabelPosition=bottom;align=center;fontSize=11;fontStyle=1;fontColor=#999999;shape=mxgraph.gcp2.cloud_scheduler" parent="1" vertex="1"><mxGeometry x="282" y="240" width="30" height="34.5" as="geometry"/></mxCell><mxCell id="SDDDcs5k6eTZLaJzviCm-14" style="edgeStyle=orthogonalEdgeStyle;rounded=0;orthogonalLoop=1;jettySize=auto;html=1;entryX=0.175;entryY=0.5;entryDx=0;entryDy=0;entryPerimeter=0;" parent="1" source="SDDDcs5k6eTZLaJzviCm-4" target="SDDDcs5k6eTZLaJzviCm-12" edge="1"><mxGeometry relative="1" as="geometry"/></mxCell><mxCell id="SDDDcs5k6eTZLaJzviCm-52" style="edgeStyle=orthogonalEdgeStyle;rounded=0;orthogonalLoop=1;jettySize=auto;html=1;" parent="1" source="SDDDcs5k6eTZLaJzviCm-4" edge="1"><mxGeometry relative="1" as="geometry"><mxPoint x="607" y="280" as="targetPoint"/></mxGeometry></mxCell><mxCell id="SDDDcs5k6eTZLaJzviCm-4" value="" style="strokeColor=#dddddd;shadow=1;strokeWidth=1;rounded=1;absoluteArcSize=1;arcSize=2;" parent="1" vertex="1"><mxGeometry x="552" y="439.25" width="110" height="60" as="geometry"/></mxCell><mxCell id="SDDDcs5k6eTZLaJzviCm-5" value="Cloud&#10;Storage" style="sketch=0;dashed=0;connectable=0;html=1;fillColor=#5184F3;strokeColor=none;shape=mxgraph.gcp2.hexIcon;prIcon=cloud_storage;part=1;labelPosition=right;verticalLabelPosition=middle;align=left;verticalAlign=middle;spacingLeft=5;fontColor=#999999;fontSize=12;" parent="SDDDcs5k6eTZLaJzviCm-4" vertex="1"><mxGeometry y="0.5" width="44" height="39" relative="1" as="geometry"><mxPoint x="5" y="-19.5" as="offset"/></mxGeometry></mxCell><mxCell id="SDDDcs5k6eTZLaJzviCm-45" style="edgeStyle=orthogonalEdgeStyle;rounded=0;orthogonalLoop=1;jettySize=auto;html=1;" parent="1" source="SDDDcs5k6eTZLaJzviCm-10" target="SDDDcs5k6eTZLaJzviCm-42" edge="1"><mxGeometry relative="1" as="geometry"/></mxCell><mxCell id="SDDDcs5k6eTZLaJzviCm-10" value="BigQuery" style="sketch=0;html=1;fillColor=#5184F3;strokeColor=none;verticalAlign=top;labelPosition=center;verticalLabelPosition=bottom;align=center;spacingTop=-6;fontSize=11;fontStyle=1;fontColor=#999999;shape=mxgraph.gcp2.hexIcon;prIcon=bigquery" parent="1" vertex="1"><mxGeometry x="1132" y="440" width="66" height="58.5" as="geometry"/></mxCell><mxCell id="SDDDcs5k6eTZLaJzviCm-31" value="" style="edgeStyle=orthogonalEdgeStyle;rounded=0;orthogonalLoop=1;jettySize=auto;html=1;" parent="1" source="SDDDcs5k6eTZLaJzviCm-12" target="SDDDcs5k6eTZLaJzviCm-29" edge="1"><mxGeometry relative="1" as="geometry"/></mxCell><mxCell id="SDDDcs5k6eTZLaJzviCm-12" value="BigQuery" style="sketch=0;html=1;fillColor=#5184F3;strokeColor=none;verticalAlign=top;labelPosition=center;verticalLabelPosition=bottom;align=center;spacingTop=-6;fontSize=11;fontStyle=1;fontColor=#999999;shape=mxgraph.gcp2.hexIcon;prIcon=bigquery" parent="1" vertex="1"><mxGeometry x="742" y="440" width="66" height="58.5" as="geometry"/></mxCell><mxCell id="SDDDcs5k6eTZLaJzviCm-28" value="" style="triangle;whiteSpace=wrap;html=1;rotation=-90;opacity=30;fillColor=#dae8fc;strokeColor=#6c8ebf;" parent="1" vertex="1"><mxGeometry x="867" y="275" width="192.5" height="652.5" as="geometry"/></mxCell><mxCell id="SDDDcs5k6eTZLaJzviCm-32" style="edgeStyle=orthogonalEdgeStyle;rounded=0;orthogonalLoop=1;jettySize=auto;html=1;entryX=0.175;entryY=0.5;entryDx=0;entryDy=0;entryPerimeter=0;" parent="1" source="SDDDcs5k6eTZLaJzviCm-29" target="SDDDcs5k6eTZLaJzviCm-10" edge="1"><mxGeometry relative="1" as="geometry"/></mxCell><mxCell id="SDDDcs5k6eTZLaJzviCm-33" value="load_footy_import" style="text;html=1;strokeColor=none;fillColor=none;align=center;verticalAlign=middle;whiteSpace=wrap;rounded=0;opacity=30;" parent="1" vertex="1"><mxGeometry x="390.5" y="510" width="89" height="30" as="geometry"/></mxCell><mxCell id="SDDDcs5k6eTZLaJzviCm-34" value="transformation" style="text;html=1;strokeColor=none;fillColor=none;align=center;verticalAlign=middle;whiteSpace=wrap;rounded=0;opacity=30;" parent="1" vertex="1"><mxGeometry x="927" y="510" width="60" height="30" as="geometry"/></mxCell><mxCell id="SDDDcs5k6eTZLaJzviCm-49" style="edgeStyle=orthogonalEdgeStyle;rounded=0;orthogonalLoop=1;jettySize=auto;html=1;startArrow=none;" parent="1" source="SDDDcs5k6eTZLaJzviCm-47" edge="1"><mxGeometry relative="1" as="geometry"><mxPoint x="1165" y="440" as="targetPoint"/></mxGeometry></mxCell><mxCell id="SDDDcs5k6eTZLaJzviCm-42" value="Cloud&#10;Functions" style="sketch=0;html=1;fillColor=#5184F3;strokeColor=none;verticalAlign=top;labelPosition=center;verticalLabelPosition=bottom;align=center;spacingTop=-6;fontSize=11;fontStyle=1;fontColor=#999999;shape=mxgraph.gcp2.hexIcon;prIcon=cloud_functions" parent="1" vertex="1"><mxGeometry x="1132" y="250" width="66" height="58.5" as="geometry"/></mxCell><mxCell id="SDDDcs5k6eTZLaJzviCm-47" value="result check" style="text;html=1;strokeColor=none;fillColor=none;align=center;verticalAlign=middle;whiteSpace=wrap;rounded=0;opacity=30;" parent="1" vertex="1"><mxGeometry x="1135" y="350" width="60" height="30" as="geometry"/></mxCell><mxCell id="SDDDcs5k6eTZLaJzviCm-50" value="" style="edgeStyle=orthogonalEdgeStyle;rounded=0;orthogonalLoop=1;jettySize=auto;html=1;endArrow=none;" parent="1" source="SDDDcs5k6eTZLaJzviCm-42" target="SDDDcs5k6eTZLaJzviCm-47" edge="1"><mxGeometry relative="1" as="geometry"><mxPoint x="1165" y="440" as="targetPoint"/><mxPoint x="1165" y="308.5" as="sourcePoint"/></mxGeometry></mxCell><mxCell id="SDDDcs5k6eTZLaJzviCm-55" style="edgeStyle=orthogonalEdgeStyle;rounded=0;orthogonalLoop=1;jettySize=auto;html=1;entryX=0.175;entryY=0.5;entryDx=0;entryDy=0;entryPerimeter=0;" parent="1" target="SDDDcs5k6eTZLaJzviCm-42" edge="1"><mxGeometry relative="1" as="geometry"><mxPoint x="796" y="278.75" as="targetPoint"/><mxPoint x="622" y="278.79999999999995" as="sourcePoint"/></mxGeometry></mxCell><mxCell id="SDDDcs5k6eTZLaJzviCm-58" value="" style="edgeStyle=orthogonalEdgeStyle;rounded=0;orthogonalLoop=1;jettySize=auto;html=1;" parent="1" source="SDDDcs5k6eTZLaJzviCm-56" target="SDDDcs5k6eTZLaJzviCm-29" edge="1"><mxGeometry relative="1" as="geometry"/></mxCell><mxCell id="SDDDcs5k6eTZLaJzviCm-56" value="Cloud Scheduler" style="html=1;fillColor=#5184F3;strokeColor=none;verticalAlign=top;labelPosition=center;verticalLabelPosition=bottom;align=center;fontSize=11;fontStyle=1;fontColor=#999999;shape=mxgraph.gcp2.cloud_scheduler" parent="1" vertex="1"><mxGeometry x="942" y="290" width="30" height="34.5" as="geometry"/></mxCell><mxCell id="SDDDcs5k6eTZLaJzviCm-60" style="edgeStyle=orthogonalEdgeStyle;rounded=0;orthogonalLoop=1;jettySize=auto;html=1;entryX=0.825;entryY=0.5;entryDx=0;entryDy=0;entryPerimeter=0;" parent="1" source="SDDDcs5k6eTZLaJzviCm-59" target="SDDDcs5k6eTZLaJzviCm-42" edge="1"><mxGeometry relative="1" as="geometry"/></mxCell><mxCell id="SDDDcs5k6eTZLaJzviCm-59" value="Cloud Scheduler" style="html=1;fillColor=#5184F3;strokeColor=none;verticalAlign=top;labelPosition=center;verticalLabelPosition=bottom;align=center;fontSize=11;fontStyle=1;fontColor=#999999;shape=mxgraph.gcp2.cloud_scheduler" parent="1" vertex="1"><mxGeometry x="1332" y="262" width="30" height="34.5" as="geometry"/></mxCell><mxCell id="5" value="" style="edgeStyle=orthogonalEdgeStyle;rounded=0;orthogonalLoop=1;jettySize=auto;html=1;" parent="1" source="2" target="SDDDcs5k6eTZLaJzviCm-4" edge="1"><mxGeometry relative="1" as="geometry"/></mxCell><mxCell id="2" value="" style="strokeColor=#dddddd;shadow=1;strokeWidth=1;rounded=1;absoluteArcSize=1;arcSize=2;" parent="1" vertex="1"><mxGeometry x="370" y="440" width="110" height="60" as="geometry"/></mxCell><mxCell id="3" value="Compute&#10;Engine" style="sketch=0;dashed=0;connectable=0;html=1;fillColor=#5184F3;strokeColor=none;shape=mxgraph.gcp2.hexIcon;prIcon=compute_engine;part=1;labelPosition=right;verticalLabelPosition=middle;align=left;verticalAlign=middle;spacingLeft=5;fontColor=#999999;fontSize=12;" parent="2" vertex="1"><mxGeometry y="0.5" width="44" height="39" relative="1" as="geometry"><mxPoint x="5" y="-19.5" as="offset"/></mxGeometry></mxCell><mxCell id="15" value="" style="edgeStyle=orthogonalEdgeStyle;rounded=0;orthogonalLoop=1;jettySize=auto;html=1;" parent="1" source="7" target="10" edge="1"><mxGeometry relative="1" as="geometry"/></mxCell><mxCell id="7" value="Cloud Scheduler" style="html=1;fillColor=#5184F3;strokeColor=none;verticalAlign=top;labelPosition=center;verticalLabelPosition=bottom;align=center;fontSize=11;fontStyle=1;fontColor=#999999;shape=mxgraph.gcp2.cloud_scheduler" parent="1" vertex="1"><mxGeometry x="420" y="240" width="30" height="34.5" as="geometry"/></mxCell><mxCell id="16" style="edgeStyle=orthogonalEdgeStyle;rounded=0;orthogonalLoop=1;jettySize=auto;html=1;" parent="1" source="8" edge="1"><mxGeometry relative="1" as="geometry"><mxPoint x="297" y="480" as="targetPoint"/></mxGeometry></mxCell><mxCell id="8" value="" style="strokeColor=#dddddd;shadow=1;strokeWidth=1;rounded=1;absoluteArcSize=1;arcSize=2;" parent="1" vertex="1"><mxGeometry x="237" y="324.5" width="120" height="60" as="geometry"/></mxCell><mxCell id="9" value="Cloud&#10;Functions" style="sketch=0;dashed=0;connectable=0;html=1;fillColor=#5184F3;strokeColor=none;shape=mxgraph.gcp2.hexIcon;prIcon=cloud_functions;part=1;labelPosition=right;verticalLabelPosition=middle;align=left;verticalAlign=middle;spacingLeft=5;fontColor=#999999;fontSize=12;" parent="8" vertex="1"><mxGeometry y="0.5" width="44" height="39" relative="1" as="geometry"><mxPoint x="5" y="-19.5" as="offset"/></mxGeometry></mxCell><mxCell id="12" value="" style="edgeStyle=orthogonalEdgeStyle;rounded=0;orthogonalLoop=1;jettySize=auto;html=1;" parent="1" source="10" target="2" edge="1"><mxGeometry relative="1" as="geometry"><Array as="points"><mxPoint x="435" y="430"/><mxPoint x="435" y="430"/></Array></mxGeometry></mxCell><mxCell id="10" value="" style="strokeColor=#dddddd;shadow=1;strokeWidth=1;rounded=1;absoluteArcSize=1;arcSize=2;" parent="1" vertex="1"><mxGeometry x="375" y="324.5" width="120" height="60" as="geometry"/></mxCell><mxCell id="11" value="Cloud&#10;Functions" style="sketch=0;dashed=0;connectable=0;html=1;fillColor=#5184F3;strokeColor=none;shape=mxgraph.gcp2.hexIcon;prIcon=cloud_functions;part=1;labelPosition=right;verticalLabelPosition=middle;align=left;verticalAlign=middle;spacingLeft=5;fontColor=#999999;fontSize=12;" parent="10" vertex="1"><mxGeometry y="0.5" width="44" height="39" relative="1" as="geometry"><mxPoint x="5" y="-19.5" as="offset"/></mxGeometry></mxCell><mxCell id="19" value="" style="edgeStyle=orthogonalEdgeStyle;rounded=0;orthogonalLoop=1;jettySize=auto;html=1;" parent="1" edge="1"><mxGeometry relative="1" as="geometry"><mxPoint x="298" y="480.67" as="sourcePoint"/><mxPoint x="370" y="480.0033333333334" as="targetPoint"/><Array as="points"><mxPoint x="334" y="481"/><mxPoint x="370" y="480"/></Array></mxGeometry></mxCell><mxCell id="20" value="starts data auto import" style="text;html=1;strokeColor=none;fillColor=none;align=center;verticalAlign=middle;whiteSpace=wrap;rounded=0;opacity=30;" parent="1" vertex="1"><mxGeometry x="237" y="409.25" width="60" height="30" as="geometry"/></mxCell><mxCell id="21" value="ends data auto import" style="text;html=1;strokeColor=none;fillColor=none;align=center;verticalAlign=middle;whiteSpace=wrap;rounded=0;opacity=30;" parent="1" vertex="1"><mxGeometry x="375" y="392" width="60" height="30" as="geometry"/></mxCell><mxCell id="22" value="" style="swimlane;startSize=0;" parent="1" vertex="1"><mxGeometry x="72" y="299.5" width="125" height="110" as="geometry"><mxRectangle x="10" y="299.5" width="50" height="40" as="alternateBounds"/></mxGeometry></mxCell><mxCell id="23" value="https://footystats.org/" style="text;html=1;align=center;verticalAlign=middle;resizable=0;points=[];autosize=1;strokeColor=none;fillColor=none;" parent="22" vertex="1"><mxGeometry x="-5" y="45" width="130" height="20" as="geometry"/></mxCell><mxCell id="27" value="" style="edgeStyle=orthogonalEdgeStyle;rounded=0;orthogonalLoop=1;jettySize=auto;html=1;" parent="1" source="23" target="8" edge="1"><mxGeometry relative="1" as="geometry"/></mxCell><mxCell id="28" value="&lt;b&gt;Data Source&lt;/b&gt;&lt;br&gt;We import from footystats.org every week five files, with actual match results from Germany, England, Italy, France and Spain&amp;nbsp;" style="text;html=1;strokeColor=none;fillColor=none;align=left;verticalAlign=top;whiteSpace=wrap;rounded=0;" parent="1" vertex="1"><mxGeometry x="82" y="570" width="100" height="210" as="geometry"/></mxCell><mxCell id="29" value="&lt;b&gt;Orchestrating Import Job&lt;br&gt;&lt;/b&gt;The data import takes place in a Compute Engine VM. With Selenium, login and manually file download on footystats.org is simulated (headless without opening a browser) on the VM. Code is executed via start scripts.&lt;br&gt;&lt;br&gt;VM is started and ended via cloud functions, which are triggered by cloud scheduler" style="text;html=1;strokeColor=none;fillColor=none;align=left;verticalAlign=top;whiteSpace=wrap;rounded=0;" parent="1" vertex="1"><mxGeometry x="237" y="570" width="175" height="210" as="geometry"/></mxCell><mxCell id="30" value="&lt;b&gt;Storing Import Data&lt;/b&gt;&lt;br&gt;Data is stored as csv files in a cloud storage and then automatically loaded into BigQuery using external tables option." style="text;html=1;strokeColor=none;fillColor=none;align=left;verticalAlign=top;whiteSpace=wrap;rounded=0;" parent="1" vertex="1"><mxGeometry x="480" y="570" width="100" height="210" as="geometry"/></mxCell><mxCell id="31" value="&lt;b&gt;Archetype Analysis, Feature Engineering and Predictions&lt;br&gt;&lt;/b&gt;&lt;span&gt;All three steps are run in a Compute Engine VM and triggered&amp;nbsp;&lt;/span&gt;&lt;span style=&quot;font-family: inherit; color: rgb(232, 234, 237);&quot;&gt;successively with a start up script. The VM is triggered via cloud scheduler every Friday afternoon.&amp;nbsp;&lt;/span&gt;&lt;b&gt;&lt;br&gt;&lt;/b&gt;&lt;b&gt;&lt;br&gt;&lt;/b&gt;Archetype Analysis (AA):&lt;br&gt;&lt;span style=&quot;color: rgb(255, 255, 255); font-family: helvetica, arial, freesans, sans-serif;&quot;&gt;AA is applied as part of the feature engineering. The AA is a way of dimensionality reduction to point out in a dataset, a certain number of archetypes. Classical archetypes to be expected are high performing clubs like Real Madrid or Bayern Munich. But also, medium and low preforming clubs can create archetypes in certain combinations of data, which can help to describe similarly performing teams.&lt;br&gt;&lt;br&gt;Preprocess:&lt;br&gt;&lt;/span&gt;&lt;font style=&quot;font-size: 12px&quot; color=&quot;#ffffff&quot;&gt;&lt;span style=&quot;font-family: helvetica, arial, freesans, sans-serif;&quot;&gt;After having created archetype groups&lt;/span&gt;&lt;span style=&quot;font-family: helvetica, arial, freesans, sans-serif;&quot;&gt;&amp;nbsp;, we will use the percentual affiliation of the teams belonging to these groups, as features to train the XGBoost model.&amp;nbsp;&lt;/span&gt;&lt;/font&gt;&lt;span style=&quot;font-family: helvetica, arial, freesans, sans-serif;&quot;&gt;&lt;font style=&quot;font-size: 12px&quot; color=&quot;#ffffff&quot;&gt;Besides the AA, we will see more feature engineering. We will calculate the average goal difference for home and away teams for the last 4 games (home or away).&amp;nbsp;&lt;br&gt;&lt;br&gt;Predictions:&lt;br&gt;&lt;/font&gt;&lt;/span&gt;&lt;font style=&quot;font-size: 12px&quot; color=&quot;#ffffff&quot;&gt;&lt;span style=&quot;font-family: helvetica, arial, freesans, sans-serif;&quot;&gt;In this microservice we will then fit and train a XGBoost model with the pre-developed and self-engineered features from the previous clustering&lt;/span&gt;&lt;span style=&quot;font-family: helvetica, arial, freesans, sans-serif;&quot;&gt;&amp;nbsp;and preprocessing&lt;/span&gt;&amp;nbsp;&lt;span style=&quot;font-family: helvetica, arial, freesans, sans-serif;&quot;&gt;preprocessing services.&lt;/span&gt;&lt;/font&gt;&lt;p style=&quot;box-sizing: border-box; margin-top: 16px; margin-bottom: 16px; color: rgb(169, 183, 198); font-family: helvetica, arial, freesans, sans-serif; font-size: 14px;&quot;&gt;&lt;/p&gt;&lt;span style=&quot;color: rgb(169, 183, 198); font-family: helvetica, arial, freesans, sans-serif; font-size: 14px;&quot;&gt;&lt;/span&gt;&lt;span style=&quot;font-family: helvetica, arial, freesans, sans-serif;&quot;&gt;&lt;font style=&quot;font-size: 12px&quot; color=&quot;#ffffff&quot;&gt;&lt;br&gt;&lt;br&gt;&lt;/font&gt;&lt;/span&gt;&lt;span style=&quot;color: rgb(169, 183, 198); font-family: helvetica, arial, freesans, sans-serif; font-size: 14px;&quot;&gt;&lt;/span&gt;" style="text;html=1;strokeColor=none;fillColor=none;align=left;verticalAlign=top;whiteSpace=wrap;rounded=0;labelBackgroundColor=default;" parent="1" vertex="1"><mxGeometry x="632" y="710" width="670" height="280" as="geometry"/></mxCell><mxCell id="50" style="edgeStyle=orthogonalEdgeStyle;rounded=0;orthogonalLoop=1;jettySize=auto;html=1;entryX=0;entryY=0.5;entryDx=0;entryDy=0;fontSize=12;fontColor=#FFFFFF;" parent="1" source="32" target="48" edge="1"><mxGeometry relative="1" as="geometry"/></mxCell><mxCell id="32" value="" style="strokeColor=#dddddd;shadow=1;strokeWidth=1;rounded=1;absoluteArcSize=1;arcSize=2;" parent="1" vertex="1"><mxGeometry x="772" y="617.25" width="105" height="50" as="geometry"/></mxCell><mxCell id="33" value="Cloud&#10;Storage" style="sketch=0;dashed=0;connectable=0;html=1;fillColor=#5184F3;strokeColor=none;shape=mxgraph.gcp2.hexIcon;prIcon=cloud_storage;part=1;labelPosition=right;verticalLabelPosition=middle;align=left;verticalAlign=middle;spacingLeft=5;fontColor=#999999;fontSize=12;" parent="32" vertex="1"><mxGeometry y="0.5" width="44" height="39" relative="1" as="geometry"><mxPoint x="5" y="-19.5" as="offset"/></mxGeometry></mxCell><mxCell id="55" style="edgeStyle=orthogonalEdgeStyle;rounded=0;orthogonalLoop=1;jettySize=auto;html=1;entryX=0;entryY=0.5;entryDx=0;entryDy=0;fontSize=12;fontColor=#FFFFFF;" parent="1" source="42" target="49" edge="1"><mxGeometry relative="1" as="geometry"/></mxCell><mxCell id="42" value="" style="strokeColor=#dddddd;shadow=1;strokeWidth=1;rounded=1;absoluteArcSize=1;arcSize=2;" parent="1" vertex="1"><mxGeometry x="1042" y="616.5" width="105" height="50" as="geometry"/></mxCell><mxCell id="43" value="Cloud&#10;Storage" style="sketch=0;dashed=0;connectable=0;html=1;fillColor=#5184F3;strokeColor=none;shape=mxgraph.gcp2.hexIcon;prIcon=cloud_storage;part=1;labelPosition=right;verticalLabelPosition=middle;align=left;verticalAlign=middle;spacingLeft=5;fontColor=#999999;fontSize=12;" parent="42" vertex="1"><mxGeometry y="0.5" width="44" height="39" relative="1" as="geometry"><mxPoint x="5" y="-19.5" as="offset"/></mxGeometry></mxCell><mxCell id="52" style="edgeStyle=orthogonalEdgeStyle;rounded=0;orthogonalLoop=1;jettySize=auto;html=1;entryX=0;entryY=0.5;entryDx=0;entryDy=0;fontSize=12;fontColor=#FFFFFF;" parent="1" source="47" target="32" edge="1"><mxGeometry relative="1" as="geometry"/></mxCell><mxCell id="47" value="&lt;br&gt;transform_aa" style="shape=hexagon;perimeter=hexagonPerimeter2;whiteSpace=wrap;html=1;fixedSize=1;fontSize=12;fontColor=#FFFFFF;align=center;verticalAlign=top;" parent="1" vertex="1"><mxGeometry x="652" y="608.38" width="90" height="66.62" as="geometry"/></mxCell><mxCell id="53" style="edgeStyle=orthogonalEdgeStyle;rounded=0;orthogonalLoop=1;jettySize=auto;html=1;entryX=0;entryY=0.5;entryDx=0;entryDy=0;fontSize=12;fontColor=#FFFFFF;" parent="1" source="48" target="42" edge="1"><mxGeometry relative="1" as="geometry"/></mxCell><mxCell id="48" value="&lt;font color=&quot;#f0f0f0&quot;&gt;&lt;br&gt;transform_&lt;br&gt;preprocess&lt;br&gt;&lt;/font&gt;" style="shape=hexagon;perimeter=hexagonPerimeter2;whiteSpace=wrap;html=1;fixedSize=1;fontSize=12;fontColor=#FFFFFF;align=center;verticalAlign=top;" parent="1" vertex="1"><mxGeometry x="919.5" y="609.88" width="85" height="64.75" as="geometry"/></mxCell><mxCell id="49" value="&lt;br&gt;transform_&lt;br&gt;ml" style="shape=hexagon;perimeter=hexagonPerimeter2;whiteSpace=wrap;html=1;fixedSize=1;fontSize=12;fontColor=#FFFFFF;align=center;verticalAlign=top;" parent="1" vertex="1"><mxGeometry x="1188" y="608.95" width="86" height="66.62" as="geometry"/></mxCell><mxCell id="56" value="&lt;b&gt;Validating Results&lt;br&gt;&lt;/b&gt;&lt;br&gt;Every Tuesday the data import (from footystats.org) VM is triggered by cloud scheduler. Then a cloud function is triggered and real results are checked against predictions. The comparison is saved as a csv file" style="text;html=1;strokeColor=none;fillColor=none;align=left;verticalAlign=top;whiteSpace=wrap;rounded=0;" parent="1" vertex="1"><mxGeometry x="1312" y="360" width="130" height="210" as="geometry"/></mxCell><mxCell id="58" value="" style="verticalLabelPosition=bottom;verticalAlign=top;html=1;strokeWidth=2;shape=mxgraph.arrows2.arrow;dy=0.6;dx=40;notch=0;fontSize=12;fontColor=#FFFFFF;" parent="1" vertex="1"><mxGeometry x="72" y="90" width="1340" height="130" as="geometry"/></mxCell><mxCell id="59" value="FULLY AUTOMATED&amp;nbsp;&lt;br&gt;INFRASTRUCTUR CREATED WITH TERRAFORM" style="text;html=1;align=center;verticalAlign=middle;resizable=0;points=[];autosize=1;strokeColor=none;fillColor=none;fontSize=12;fontColor=#FFFFFF;" parent="1" vertex="1"><mxGeometry x="612" y="140" width="290" height="30" as="geometry"/></mxCell></root></mxGraphModel></diagram></mxfile>